{
	"asset":{
		"copyright":"Roman Ziamtsou",
		"generator":"Khronos glTF Blender I/O v3.6.27",
		"version":"2.0"
	},
	"scene":0,
	"scenes":[
		{
			"name":"Scene",
			"nodes":[
				0,
				1,
				2,
				3,
				4
			]
		}
	],
	"nodes":[
		{
			"mesh":0,
			"name":"Torus",
			"scale":[
				1,
				0.10282999277114868,
				1
			]
		},
		{
			"mesh":1,
			"name":"Cylinder",
			"scale":[
				0.20000000298023224,
				1,
				0.20000000298023224
			],
			"translation":[
				-1,
				0.9567387104034424,
				0
			]
		},
		{
			"mesh":2,
			"name":"Cylinder.001",
			"scale":[
				0.20000000298023224,
				1,
				0.20000000298023224
			],
			"translation":[
				1,
				0.9567387104034424,
				0
			]
		},
		{
			"mesh":3,
			"name":"Cube",
			"scale":[
				1,
				0.10000000149011612,
				0.10000000149011612
			],
			"translation":[
				0,
				1.7999999523162842,
				0
			]
		},
		{
			"mesh":4,
			"name":"Cone",
			"rotation":[
				0,
				0,
				1,
				4.371138828673793e-08
			],
			"scale":[
				0.3499999940395355,
				1,
				0.3499999940395355
			],
			"translation":[
				0,
				0.8600000143051147,
				0
			]
		}
	],
	"animations":[
		{
			"channels":[
				{
					"sampler":0,
					"target":{
						"node":3,
						"path":"translation"
					}
				},
				{
					"sampler":1,
					"target":{
						"node":3,
						"path":"rotation"
					}
				},
				{
					"sampler":2,
					"target":{
						"node":3,
						"path":"scale"
					}
				}
			],
			"name":"CubeAction",
			"samplers":[
				{
					"input":19,
					"interpolation":"LINEAR",
					"output":20
				},
				{
					"input":21,
					"interpolation":"STEP",
					"output":22
				},
				{
					"input":21,
					"interpolation":"STEP",
					"output":23
				}
			]
		},
		{
			"channels":[
				{
					"sampler":0,
					"target":{
						"node":4,
						"path":"translation"
					}
				},
				{
					"sampler":1,
					"target":{
						"node":4,
						"path":"rotation"
					}
				},
				{
					"sampler":2,
					"target":{
						"node":4,
						"path":"scale"
					}
				}
			],
			"name":"ConeAction",
			"samplers":[
				{
					"input":19,
					"interpolation":"LINEAR",
					"output":24
				},
				{
					"input":19,
					"interpolation":"LINEAR",
					"output":25
				},
				{
					"input":21,
					"interpolation":"STEP",
					"output":26
				}
			]
		}
	],
	"materials":[
		{
			"doubleSided":true,
			"name":"Material.001",
			"pbrMetallicRoughness":{
				"baseColorFactor":[
					0.1502818912267685,
					0.1502818912267685,
					0.1502818912267685,
					1
				],
				"metallicFactor":0,
				"roughnessFactor":0.5
			}
		},
		{
			"doubleSided":true,
			"name":"Material.002",
			"pbrMetallicRoughness":{
				"baseColorFactor":[
					0.42281264066696167,
					0.42281264066696167,
					0.42281264066696167,
					1
				],
				"metallicFactor":0,
				"roughnessFactor":0.5
			}
		}
	],
	"meshes":[
		{
			"name":"Torus",
			"primitives":[
				{
					"attributes":{
						"POSITION":0,
						"NORMAL":1,
						"TEXCOORD_0":2
					},
					"indices":3,
					"material":0
				}
			]
		},
		{
			"name":"Cylinder",
			"primitives":[
				{
					"attributes":{
						"POSITION":4,
						"NORMAL":5,
						"TEXCOORD_0":6
					},
					"indices":7,
					"material":0
				}
			]
		},
		{
			"name":"Cylinder.001",
			"primitives":[
				{
					"attributes":{
						"POSITION":8,
						"NORMAL":9,
						"TEXCOORD_0":10
					},
					"indices":7,
					"material":0
				}
			]
		},
		{
			"name":"Cube.001",
			"primitives":[
				{
					"attributes":{
						"POSITION":11,
						"NORMAL":12,
						"TEXCOORD_0":13
					},
					"indices":14,
					"material":1
				}
			]
		},
		{
			"name":"Cone",
			"primitives":[
				{
					"attributes":{
						"POSITION":15,
						"NORMAL":16,
						"TEXCOORD_0":17
					},
					"indices":18,
					"material":1
				}
			]
		}
	],
	"accessors":[
		{
			"bufferView":0,
			"componentType":5126,
			"count":2304,
			"max":[
				1.25,
				0.25,
				1.25
			],
			"min":[
				-1.25,
				-0.25,
				-1.25
			],
			"type":"VEC3"
		},
		{
			"bufferView":1,
			"componentType":5126,
			"count":2304,
			"type":"VEC3"
		},
		{
			"bufferView":2,
			"componentType":5126,
			"count":2304,
			"type":"VEC2"
		},
		{
			"bufferView":3,
			"componentType":5123,
			"count":3456,
			"type":"SCALAR"
		},
		{
			"bufferView":4,
			"componentType":5126,
			"count":192,
			"max":[
				1,
				1,
				1
			],
			"min":[
				-1,
				-1,
				-1
			],
			"type":"VEC3"
		},
		{
			"bufferView":5,
			"componentType":5126,
			"count":192,
			"type":"VEC3"
		},
		{
			"bufferView":6,
			"componentType":5126,
			"count":192,
			"type":"VEC2"
		},
		{
			"bufferView":7,
			"componentType":5123,
			"count":372,
			"type":"SCALAR"
		},
		{
			"bufferView":8,
			"componentType":5126,
			"count":192,
			"max":[
				1,
				1,
				1
			],
			"min":[
				-1,
				-1,
				-1
			],
			"type":"VEC3"
		},
		{
			"bufferView":9,
			"componentType":5126,
			"count":192,
			"type":"VEC3"
		},
		{
			"bufferView":10,
			"componentType":5126,
			"count":192,
			"type":"VEC2"
		},
		{
			"bufferView":11,
			"componentType":5126,
			"count":24,
			"max":[
				1,
				1,
				1
			],
			"min":[
				-1,
				-1,
				-1
			],
			"type":"VEC3"
		},
		{
			"bufferView":12,
			"componentType":5126,
			"count":24,
			"type":"VEC3"
		},
		{
			"bufferView":13,
			"componentType":5126,
			"count":24,
			"type":"VEC2"
		},
		{
			"bufferView":14,
			"componentType":5123,
			"count":36,
			"type":"SCALAR"
		},
		{
			"bufferView":15,
			"componentType":5126,
			"count":11790,
			"max":[
				0.6949213147163391,
				0.7073280811309814,
				0.6466472148895264
			],
			"min":[
				-0.6422534584999084,
				-0.9699569940567017,
				-0.6633821725845337
			],
			"type":"VEC3"
		},
		{
			"bufferView":16,
			"componentType":5126,
			"count":11790,
			"type":"VEC3"
		},
		{
			"bufferView":17,
			"componentType":5126,
			"count":11790,
			"type":"VEC2"
		},
		{
			"bufferView":18,
			"componentType":5123,
			"count":16674,
			"type":"SCALAR"
		},
		{
			"bufferView":19,
			"componentType":5126,
			"count":600,
			"max":[
				10
			],
			"min":[
				0.016666666666666666
			],
			"type":"SCALAR"
		},
		{
			"bufferView":20,
			"componentType":5126,
			"count":600,
			"type":"VEC3"
		},
		{
			"bufferView":21,
			"componentType":5126,
			"count":2,
			"max":[
				10
			],
			"min":[
				0.016666666666666666
			],
			"type":"SCALAR"
		},
		{
			"bufferView":22,
			"componentType":5126,
			"count":2,
			"type":"VEC4"
		},
		{
			"bufferView":23,
			"componentType":5126,
			"count":2,
			"type":"VEC3"
		},
		{
			"bufferView":24,
			"componentType":5126,
			"count":600,
			"type":"VEC3"
		},
		{
			"bufferView":25,
			"componentType":5126,
			"count":600,
			"type":"VEC4"
		},
		{
			"bufferView":26,
			"componentType":5126,
			"count":2,
			"type":"VEC3"
		}
	],
	"bufferViews":[
		{
			"buffer":0,
			"byteLength":27648,
			"byteOffset":0,
			"target":34962
		},
		{
			"buffer":0,
			"byteLength":27648,
			"byteOffset":27648,
			"target":34962
		},
		{
			"buffer":0,
			"byteLength":18432,
			"byteOffset":55296,
			"target":34962
		},
		{
			"buffer":0,
			"byteLength":6912,
			"byteOffset":73728,
			"target":34963
		},
		{
			"buffer":0,
			"byteLength":2304,
			"byteOffset":80640,
			"target":34962
		},
		{
			"buffer":0,
			"byteLength":2304,
			"byteOffset":82944,
			"target":34962
		},
		{
			"buffer":0,
			"byteLength":1536,
			"byteOffset":85248,
			"target":34962
		},
		{
			"buffer":0,
			"byteLength":744,
			"byteOffset":86784,
			"target":34963
		},
		{
			"buffer":0,
			"byteLength":2304,
			"byteOffset":87528,
			"target":34962
		},
		{
			"buffer":0,
			"byteLength":2304,
			"byteOffset":89832,
			"target":34962
		},
		{
			"buffer":0,
			"byteLength":1536,
			"byteOffset":92136,
			"target":34962
		},
		{
			"buffer":0,
			"byteLength":288,
			"byteOffset":93672,
			"target":34962
		},
		{
			"buffer":0,
			"byteLength":288,
			"byteOffset":93960,
			"target":34962
		},
		{
			"buffer":0,
			"byteLength":192,
			"byteOffset":94248,
			"target":34962
		},
		{
			"buffer":0,
			"byteLength":72,
			"byteOffset":94440,
			"target":34963
		},
		{
			"buffer":0,
			"byteLength":141480,
			"byteOffset":94512,
			"target":34962
		},
		{
			"buffer":0,
			"byteLength":141480,
			"byteOffset":235992,
			"target":34962
		},
		{
			"buffer":0,
			"byteLength":94320,
			"byteOffset":377472,
			"target":34962
		},
		{
			"buffer":0,
			"byteLength":33348,
			"byteOffset":471792,
			"target":34963
		},
		{
			"buffer":0,
			"byteLength":2400,
			"byteOffset":505140
		},
		{
			"buffer":0,
			"byteLength":7200,
			"byteOffset":507540
		},
		{
			"buffer":0,
			"byteLength":8,
			"byteOffset":514740
		},
		{
			"buffer":0,
			"byteLength":32,
			"byteOffset":514748
		},
		{
			"buffer":0,
			"byteLength":24,
			"byteOffset":514780
		},
		{
			"buffer":0,
			"byteLength":7200,
			"byteOffset":514804
		},
		{
			"buffer":0,
			"byteLength":9600,
			"byteOffset":522004
		},
		{
			"buffer":0,
			"byteLength":24,
			"byteOffset":531604
		}
	],
	"buffers":[
		{
			"byteLength":531628,
			"uri":"data:application/octet-stream;base64,"
		}
	]
}
